<?xml version="1.0" standalone="no"?>
<!DOCTYPE svg PUBLIC "-//W3C//DTD SVG 20010904//EN"
 "http://www.w3.org/TR/2001/REC-SVG-20010904/DTD/svg10.dtd">
<svg version="1.0" xmlns="http://www.w3.org/2000/svg"
 width="4096.000000pt" height="4096.000000pt" viewBox="0 0 4096.000000 4096.000000"
 preserveAspectRatio="xMidYMid meet">

<g transform="translate(0.000000,4096.000000) scale(0.100000,-0.100000)"
fill="#ffffff" stroke="none">
<path d="M19725 40951 c-11 -5 -122 -9 -246 -10 -125 -1 -242 -6 -260 -11 -19
-6 -63 -10 -99 -10 -36 0 -153 -7 -260 -15 -578 -44 -1091 -98 -1520 -160 -58
-9 -141 -20 -185 -26 -214 -27 -1103 -194 -1390 -261 -22 -5 -58 -13 -80 -17
-22 -5 -65 -15 -95 -23 -30 -8 -100 -25 -155 -38 -104 -24 -504 -124 -565
-141 -19 -6 -50 -14 -67 -20 -18 -5 -48 -13 -65 -18 -18 -5 -62 -18 -98 -29
-93 -29 -340 -102 -375 -112 -207 -57 -679 -218 -1135 -387 -239 -89 -431
-165 -580 -228 -69 -29 -172 -72 -230 -95 -171 -68 -224 -91 -445 -195 -49
-23 -137 -64 -195 -90 -284 -129 -941 -462 -1175 -594 -66 -38 -172 -97 -235
-131 -112 -62 -231 -132 -570 -337 -190 -115 -207 -126 -510 -321 -124 -80
-283 -187 -355 -237 -71 -51 -160 -112 -197 -136 -204 -135 -855 -624 -1127
-848 -273 -225 -366 -303 -496 -415 -77 -67 -153 -132 -170 -145 -16 -12 -61
-53 -100 -90 -38 -37 -119 -111 -180 -166 -60 -54 -155 -142 -210 -195 -55
-53 -147 -141 -204 -195 -246 -237 -638 -640 -841 -865 -52 -58 -128 -141
-170 -186 -41 -44 -107 -118 -146 -165 -39 -46 -102 -120 -140 -164 -38 -44
-89 -105 -114 -135 -25 -30 -47 -57 -50 -60 -3 -3 -35 -41 -70 -85 -36 -44
-101 -123 -145 -176 -333 -403 -896 -1180 -1216 -1677 -241 -375 -537 -863
-659 -1087 -18 -33 -46 -85 -63 -115 -16 -30 -47 -86 -69 -123 -106 -182 -471
-911 -611 -1217 -42 -91 -96 -210 -122 -265 -26 -55 -69 -154 -95 -220 -27
-66 -76 -185 -110 -265 -35 -80 -77 -183 -95 -230 -18 -47 -58 -152 -90 -235
-83 -216 -109 -287 -185 -505 -37 -107 -89 -253 -114 -324 -42 -118 -127 -387
-147 -461 -4 -16 -17 -61 -29 -100 -21 -70 -94 -313 -110 -370 -40 -137 -57
-202 -95 -355 -24 -96 -62 -251 -85 -345 -22 -93 -45 -186 -50 -205 -8 -33
-15 -61 -40 -175 -5 -25 -14 -64 -19 -87 -6 -24 -12 -54 -14 -68 -3 -14 -21
-106 -41 -205 -89 -440 -178 -962 -217 -1270 -20 -163 -30 -240 -39 -317 -39
-319 -89 -861 -110 -1193 -6 -93 -13 -190 -16 -215 -34 -295 -37 -1791 -4
-2020 5 -36 16 -175 25 -310 24 -372 62 -796 95 -1060 39 -316 51 -407 90
-690 17 -122 70 -435 106 -620 50 -262 112 -578 123 -625 5 -22 14 -60 20 -85
49 -219 204 -856 232 -955 11 -38 24 -88 31 -110 6 -22 19 -65 29 -95 10 -30
32 -104 49 -165 17 -60 35 -121 40 -135 5 -14 30 -97 56 -185 89 -302 398
-1169 543 -1520 27 -66 86 -210 130 -320 45 -110 98 -234 118 -275 19 -41 84
-181 143 -310 59 -129 164 -349 234 -487 l126 -253 240 0 c201 0 240 2 240 14
0 8 -16 43 -36 78 -34 62 -290 575 -364 733 -76 161 -222 489 -266 598 -26 62
-57 136 -70 165 -13 29 -24 55 -24 57 0 2 -11 28 -24 57 -36 79 -81 194 -146
373 -32 88 -76 205 -98 260 -22 55 -56 143 -75 195 -44 117 -267 792 -303 915
-157 541 -196 686 -283 1055 -18 74 -50 209 -72 300 -22 91 -44 183 -49 205
-27 112 -134 684 -161 855 -4 30 -17 109 -29 175 -11 66 -24 147 -29 180 -5
33 -19 121 -30 195 -116 761 -194 1876 -195 2780 0 776 58 1716 150 2445 16
126 59 431 74 525 5 30 14 84 20 120 5 36 14 90 19 120 6 30 26 147 45 260 39
230 53 301 103 545 19 94 39 188 43 211 5 22 29 123 54 225 24 101 59 245 76
319 46 194 114 458 151 580 17 58 34 119 39 135 89 323 354 1126 458 1385 38
96 74 191 80 210 19 65 126 338 187 475 10 22 22 49 26 60 5 11 29 68 54 127
25 59 45 110 45 112 0 2 38 89 85 193 47 103 98 215 113 248 15 33 69 145 119
248 51 104 93 191 93 194 0 7 267 520 363 698 151 280 423 746 542 930 28 44
71 114 96 155 24 41 146 228 270 415 846 1271 1813 2412 2949 3481 556 522
1265 1112 1781 1484 27 19 104 75 171 124 511 371 1036 713 1653 1074 185 108
437 248 575 320 69 36 179 94 245 129 177 94 622 313 820 403 271 123 396 179
512 226 76 31 199 82 273 114 74 32 205 84 290 115 85 32 234 88 330 125 257
101 929 326 1190 401 180 51 211 59 310 89 112 33 464 123 620 159 52 12 178
42 279 67 101 25 204 49 230 54 25 5 89 19 141 30 257 56 592 116 1115 200
552 89 1161 152 1835 190 1034 58 1927 40 3070 -60 326 -28 831 -94 1130 -146
47 -9 112 -19 145 -25 122 -18 441 -74 625 -108 25 -5 115 -23 200 -41 85 -18
175 -36 199 -41 25 -5 88 -20 140 -33 53 -14 125 -32 161 -40 256 -60 378 -90
465 -112 197 -50 329 -86 369 -99 23 -8 66 -21 96 -29 359 -95 1238 -389 1449
-483 18 -8 45 -19 60 -23 65 -21 259 -93 396 -148 267 -108 469 -194 735 -315
30 -13 87 -39 127 -56 122 -53 815 -392 838 -410 5 -5 89 -49 187 -99 97 -50
215 -114 264 -142 48 -27 88 -50 89 -50 3 0 251 -142 500 -287 66 -38 154 -92
195 -120 41 -27 140 -90 220 -138 80 -49 255 -162 390 -251 224 -149 298 -200
571 -394 133 -94 624 -464 760 -572 232 -185 361 -290 437 -356 42 -37 120
-103 172 -147 52 -43 97 -81 100 -85 3 -3 39 -35 80 -70 41 -36 82 -72 90 -80
8 -9 60 -55 115 -104 562 -500 1457 -1426 1875 -1941 41 -51 109 -133 150
-182 170 -202 497 -624 701 -904 63 -86 137 -187 164 -225 28 -38 88 -125 135
-195 408 -606 542 -817 817 -1289 112 -192 148 -257 236 -420 19 -36 63 -114
97 -175 34 -60 95 -176 135 -256 41 -81 81 -149 90 -153 9 -3 115 -6 236 -6
185 0 221 2 225 15 6 15 -28 91 -94 210 -22 39 -98 183 -171 320 -161 307
-191 363 -297 543 -46 79 -84 144 -84 146 0 5 -92 163 -137 236 -22 36 -70
115 -108 175 -219 357 -538 836 -815 1225 -56 79 -262 355 -392 525 -263 344
-606 758 -941 1134 -435 488 -1067 1127 -1487 1501 -52 47 -97 88 -100 91 -4
4 -105 93 -375 328 -16 14 -93 78 -169 141 -77 63 -180 149 -230 190 -124 103
-429 343 -518 408 -40 29 -98 72 -128 95 -66 52 -723 520 -818 583 -228 151
-750 479 -902 566 -19 11 -89 53 -155 93 -173 105 -527 301 -770 428 -224 117
-781 397 -789 397 -2 0 -47 20 -100 45 -53 25 -98 45 -100 45 -2 0 -70 32
-151 71 -81 38 -184 85 -228 104 -105 42 -393 161 -522 215 -94 39 -631 243
-685 260 -14 5 -117 40 -230 80 -298 104 -508 174 -650 215 -150 44 -359 106
-455 135 -131 40 -501 135 -822 210 -158 38 -258 61 -300 71 -24 5 -62 13 -85
19 -297 68 -1110 214 -1398 250 -36 5 -101 14 -145 20 -453 63 -1253 141
-1605 156 -69 3 -134 8 -145 11 -57 18 -1441 40 -1480 24z"/>
<path d="M13306 38929 c-2 -8 -9 -72 -15 -144 -20 -225 -65 -363 -182 -561
-67 -112 -237 -331 -408 -524 -329 -372 -489 -776 -481 -1215 2 -66 2 -125 1
-131 -2 -18 -49 -34 -99 -34 -65 1 -119 28 -174 89 -55 61 -87 138 -98 237
-20 171 -98 424 -181 584 -53 105 -177 292 -196 298 -10 3 -13 -41 -13 -199 0
-189 -5 -265 -31 -464 -26 -198 -71 -382 -125 -516 -50 -123 -228 -460 -269
-509 -23 -27 -123 -224 -154 -303 -35 -87 -92 -281 -111 -372 -6 -33 -15 -78
-20 -100 -18 -84 -24 -187 -24 -405 0 -249 6 -313 46 -490 44 -195 149 -456
231 -574 206 -297 393 -459 715 -620 123 -62 170 -80 342 -133 169 -51 379
-95 570 -119 180 -22 695 -30 885 -15 520 44 923 159 1300 369 203 114 443
322 580 504 225 297 351 608 407 998 16 113 21 457 9 565 -41 347 -136 679
-259 905 -14 25 -41 74 -60 110 -84 153 -270 394 -301 388 -15 -3 -21 -19 -40
-108 -36 -167 -43 -195 -89 -341 -74 -234 -219 -482 -395 -671 -40 -44 -72
-51 -64 -15 55 254 62 317 62 592 0 300 -12 411 -67 645 -62 262 -166 571
-258 765 -85 179 -224 437 -317 585 -130 209 -343 513 -418 599 -22 25 -61 71
-85 101 -36 45 -136 161 -197 229 -11 13 -13 13 -17 0z m121 -3405 c75 -57
109 -92 187 -194 114 -148 182 -259 261 -423 171 -357 245 -647 245 -958 0
-344 -89 -580 -296 -780 -194 -188 -407 -277 -815 -339 -102 -16 -178 -13
-186 6 -3 9 -1 58 6 110 16 133 1 240 -72 534 -61 243 -61 246 -62 390 0 141
1 146 28 196 35 62 97 127 179 185 259 185 354 329 420 634 19 88 22 132 22
375 1 151 5 281 9 288 12 18 21 15 74 -24z"/>
<path d="M9300 32441 c0 -5 60 -105 133 -222 208 -334 202 -326 235 -332 38
-8 7768 -8 7804 -1 21 5 42 29 94 113 37 58 112 175 167 259 55 84 102 162
104 173 5 19 -50 19 -4266 19 -2518 0 -4271 -4 -4271 -9z"/>
<path d="M11032 31458 c-13 -13 -18 -451 -6 -496 l6 -22 397 2 396 3 6 64 c4
37 12 67 20 72 8 5 727 9 1659 9 1457 0 1648 -2 1667 -15 18 -12 23 -27 25
-73 l3 -57 365 0 365 0 3 254 c2 197 -1 256 -10 263 -7 4 -1109 8 -2448 8
-1882 0 -2439 -3 -2448 -12z"/>
<path d="M12375 30527 c-3 -7 -4 -140 -3 -297 l3 -285 150 -5 150 -5 8 -60 c4
-33 12 -163 17 -290 5 -126 13 -331 19 -455 5 -124 12 -295 16 -380 3 -85 8
-202 10 -260 3 -58 10 -215 15 -350 5 -135 14 -362 20 -505 6 -143 15 -381 20
-530 6 -148 15 -380 20 -515 5 -135 14 -366 19 -515 18 -493 31 -799 36 -905
3 -58 10 -249 16 -425 16 -527 32 -957 59 -1610 29 -718 47 -1161 60 -1500 5
-132 12 -296 15 -365 13 -328 64 -1682 85 -2305 6 -170 13 -362 16 -425 3 -63
9 -239 15 -390 5 -151 14 -399 20 -550 6 -151 14 -369 18 -485 4 -120 8 409 9
1241 2 1212 4 1453 16 1463 9 8 142 10 472 9 l459 -3 3 -2279 c2 -1817 0
-2281 -10 -2288 -7 -4 -206 -8 -441 -8 -363 0 -428 -2 -433 -14 -3 -8 -1 -160
5 -338 15 -430 29 -914 41 -1353 10 -381 16 -434 66 -572 51 -143 171 -273
281 -308 75 -24 171 -17 238 18 102 51 193 184 234 339 34 130 40 327 46 1353
3 550 10 1351 15 1780 5 429 14 1199 19 1710 6 512 15 1292 21 1735 5 443 14
1161 20 1595 5 435 12 977 15 1205 4 228 11 795 16 1260 11 938 24 1949 39
3125 6 429 15 1120 20 1535 17 1354 22 1600 34 1608 6 4 74 9 151 12 l140 5 0
295 0 295 -1138 3 c-911 2 -1139 0 -1142 -11z"/>
<path d="M30624 29637 c-21 -12 -97 -75 -184 -153 -64 -57 -304 -263 -429
-368 -58 -49 -129 -110 -157 -135 -28 -25 -160 -140 -294 -256 -134 -115 -283
-244 -330 -285 -48 -41 -109 -93 -136 -115 -27 -22 -69 -58 -94 -81 -97 -87
-128 -114 -212 -185 -48 -41 -196 -169 -330 -285 -527 -456 -968 -837 -1263
-1090 -233 -199 -257 -222 -250 -234 4 -7 368 -10 1120 -10 1006 0 1113 -2
1119 -16 3 -9 6 -424 6 -922 0 -499 4 -913 9 -920 4 -7 70 -39 147 -71 124
-52 347 -148 429 -185 17 -8 82 -36 145 -64 63 -27 173 -75 243 -106 70 -31
130 -56 132 -56 7 0 320 -139 450 -200 33 -16 116 -51 185 -78 69 -28 193 -80
275 -117 83 -36 164 -72 180 -80 17 -7 174 -75 350 -150 350 -150 533 -231
668 -294 49 -23 92 -41 98 -41 5 0 17 -4 27 -10 9 -5 80 -36 157 -69 77 -32
165 -70 195 -84 30 -13 78 -35 105 -47 28 -12 68 -30 90 -40 22 -10 85 -36
140 -58 55 -22 132 -55 170 -72 39 -17 147 -65 240 -105 155 -66 405 -176 480
-210 17 -7 75 -32 130 -55 127 -54 318 -138 415 -183 41 -19 122 -54 180 -77
119 -48 142 -59 152 -74 4 -6 8 -317 8 -692 0 -516 -3 -683 -12 -692 -9 -9
-1662 -12 -7375 -12 -6564 0 -7364 2 -7369 15 -8 21 2 32 161 169 77 66 156
135 175 152 19 18 87 77 151 131 64 54 166 141 225 193 60 52 159 137 219 189
61 53 124 108 140 122 83 74 422 365 519 448 61 51 143 121 181 156 39 34 122
107 186 161 64 54 180 155 259 224 79 69 193 168 255 220 191 162 468 401 520
449 28 25 107 94 175 152 69 59 176 151 239 205 63 55 160 137 215 183 56 47
124 106 151 132 28 26 84 76 126 111 42 34 179 152 305 261 126 109 269 233
318 275 49 42 161 140 249 217 88 77 195 169 237 205 124 105 296 253 430 370
69 60 164 142 211 182 128 109 433 373 524 453 44 38 107 93 140 121 230 198
275 238 275 245 0 5 -2645 9 -5978 9 -4636 0 -5981 -3 -5990 -12 -9 -9 -12
-76 -12 -242 0 -127 -4 -582 -10 -1011 -32 -2539 -52 -4436 -46 -4443 4 -4
1225 -8 2713 -9 2029 -1 2708 -4 2717 -13 13 -13 -7 -33 -243 -235 -90 -77
-223 -192 -295 -255 -72 -63 -205 -178 -296 -255 -90 -77 -207 -178 -259 -224
-126 -110 -134 -116 -217 -186 -38 -33 -126 -109 -195 -169 -68 -60 -135 -118
-149 -130 -32 -27 -145 -124 -285 -246 -60 -53 -137 -118 -171 -146 -33 -27
-110 -92 -170 -145 -113 -100 -325 -284 -429 -373 -32 -28 -76 -67 -98 -86
l-38 -35 45 -186 c25 -102 61 -257 81 -345 42 -184 55 -243 96 -414 55 -228
93 -394 129 -560 31 -143 60 -271 70 -310 5 -19 32 -129 60 -245 53 -220 59
-248 85 -357 8 -38 22 -96 29 -130 8 -35 22 -94 31 -133 8 -38 24 -107 34
-151 11 -52 15 -88 9 -98 -8 -14 -68 -16 -602 -16 -463 0 -596 3 -604 13 -6 6
-31 122 -57 257 -25 135 -48 253 -51 263 -5 16 -33 17 -452 15 l-447 -3 -58
-260 c-39 -174 -64 -264 -75 -272 -12 -10 -128 -13 -499 -13 l-483 0 2 -362 3
-363 4230 0 4230 0 -3 25 c-31 218 5 325 124 369 139 53 289 -8 326 -131 11
-38 14 -149 6 -233 l-3 -30 4537 -3 c4535 -2 4537 -2 4548 -22 13 -24 10 -604
-3 -616 -4 -4 -4025 -7 -8935 -7 -4910 1 -8961 -1 -9002 -5 l-75 -7 -3 -129
c-2 -86 1 -133 9 -142 10 -12 1440 -14 9684 -14 8811 0 9673 -1 9679 -16 3 -9
6 -147 6 -309 0 -234 -3 -295 -14 -304 -9 -8 -2560 -12 -9707 -13 l-9693 -3
-19 -60 c-10 -33 -31 -96 -47 -140 -16 -43 -27 -81 -25 -83 2 -2 4696 -5
10432 -7 5735 -2 10436 -4 10446 -4 16 -1 17 -23 17 -312 0 -288 -1 -311 -17
-315 -10 -3 -5695 -6 -12634 -7 l-12616 -2 -119 -105 c-65 -58 -185 -163 -267
-233 l-147 -127 -3439 0 c-1892 0 -3442 -3 -3444 -7 -9 -14 253 -487 471 -853
57 -96 112 -188 121 -205 73 -136 666 -1025 841 -1260 36 -49 108 -146 158
-215 51 -69 111 -150 134 -180 24 -30 74 -96 112 -145 306 -395 671 -829 1010
-1200 56 -60 124 -135 151 -165 398 -435 1163 -1168 1630 -1560 56 -47 121
-102 145 -123 334 -281 828 -663 1205 -930 94 -66 206 -146 250 -177 426 -303
1325 -856 1820 -1120 254 -135 700 -361 909 -459 144 -68 258 -121 261 -121 2
0 64 -29 138 -64 74 -36 224 -101 334 -146 109 -45 216 -90 238 -100 22 -10
76 -32 120 -50 44 -17 94 -37 110 -45 227 -99 1101 -404 1500 -524 55 -16 215
-64 355 -107 140 -42 273 -80 295 -85 22 -5 56 -13 75 -18 61 -17 73 -20 160
-40 47 -11 135 -32 195 -46 61 -14 139 -33 175 -41 36 -8 103 -24 150 -35 83
-20 126 -29 213 -48 23 -5 62 -14 87 -20 41 -10 352 -69 555 -106 122 -22 242
-42 330 -55 44 -6 100 -15 125 -20 99 -18 396 -61 600 -85 1381 -165 2661
-196 3944 -95 263 21 700 64 916 90 47 6 121 15 165 20 109 14 302 41 410 59
33 5 92 14 130 20 39 6 95 15 125 21 30 6 82 15 115 20 171 26 492 85 710 131
28 6 68 15 90 19 22 5 78 18 125 29 91 21 179 42 288 66 37 9 83 20 102 25 19
5 94 23 165 40 119 28 286 70 360 90 17 4 100 29 185 55 85 25 238 71 340 102
297 88 869 279 1060 353 41 16 138 52 215 80 151 55 395 151 460 180 39 17 98
42 327 136 88 36 345 153 598 272 360 169 1040 516 1170 597 19 12 101 58 181
103 133 74 396 230 690 409 370 227 919 602 1369 937 208 154 249 186 520 402
658 523 1370 1174 1945 1780 241 254 385 410 485 524 45 52 104 118 129 145
26 28 80 91 121 141 41 50 130 157 198 238 114 135 218 262 283 347 33 42 145
184 164 207 32 39 347 466 430 582 335 470 566 825 900 1380 77 129 161 271
185 315 24 44 78 141 121 215 124 217 465 885 587 1150 16 36 75 163 131 284
56 120 124 273 151 340 27 66 72 175 100 241 54 126 149 364 181 452 10 29 28
77 38 105 10 29 37 100 59 158 79 204 249 707 331 975 58 191 183 610 191 640
20 71 62 240 90 360 17 72 35 146 40 165 5 19 16 64 24 100 8 36 24 106 36
155 41 175 51 221 62 270 5 28 14 68 19 90 5 22 18 90 29 150 12 61 27 139 35
175 16 74 67 372 105 615 6 39 16 97 21 130 6 33 14 90 20 128 5 37 14 100 19
140 40 277 87 713 120 1107 24 292 30 376 40 570 40 784 40 1265 0 2060 -20
389 -72 992 -120 1380 -6 47 -15 121 -20 165 -5 44 -14 109 -19 145 -5 36 -14
99 -20 140 -6 41 -15 102 -21 135 -9 61 -24 154 -40 255 -5 30 -16 93 -24 140
-8 47 -22 123 -30 170 -33 186 -67 367 -75 405 -5 22 -15 67 -21 100 -6 33
-15 76 -20 95 -5 19 -13 55 -19 80 -6 25 -22 95 -36 155 -15 61 -33 137 -40
170 -8 33 -30 128 -50 210 -20 83 -43 179 -51 215 -8 36 -17 74 -20 85 -3 11
-9 36 -14 55 -4 19 -17 64 -28 100 -27 89 -102 338 -167 555 -158 529 -451
1342 -655 1815 -32 74 -78 185 -103 245 -24 61 -70 164 -102 230 -31 66 -86
183 -120 260 -63 138 -232 486 -259 535 l-15 25 -3583 2 c-2797 2 -3588 0
-3604 -10z m-9571 -9822 c339 -54 571 -165 782 -371 158 -155 265 -330 363
-594 71 -192 102 -303 131 -470 28 -159 47 -347 62 -602 21 -385 -21 -915 -97
-1223 -25 -98 -65 -227 -84 -272 -14 -33 -26 -62 -43 -108 -62 -165 -173 -346
-290 -472 -90 -98 -230 -212 -317 -257 -93 -49 -278 -120 -380 -146 -183 -47
-246 -50 -1075 -50 -474 0 -786 4 -795 10 -13 8 -15 122 -18 905 l-2 895 -120
0 c-108 0 -120 2 -130 19 -13 26 -14 840 0 875 9 26 10 26 130 26 l120 0 1
863 c1 474 1 881 0 904 -2 23 2 51 9 62 l11 21 824 0 c683 0 841 -3 918 -15z
m2911 -1 c3 -9 6 -1034 6 -2278 0 -1746 -3 -2265 -12 -2274 -17 -17 -1139 -17
-1156 0 -9 9 -12 530 -12 2283 0 1250 3 2275 7 2278 3 4 266 7 584 7 517 0
577 -2 583 -16z m1701 8 c10 -6 64 -130 130 -297 32 -81 63 -156 173 -425 44
-107 88 -215 97 -240 9 -25 21 -54 26 -65 19 -44 97 -233 118 -285 11 -30 51
-129 87 -220 110 -272 101 -244 239 -785 100 -394 140 -533 156 -549 12 -13
12 33 0 87 -5 23 -15 87 -21 142 -6 55 -18 154 -26 220 -8 66 -19 156 -25 200
-5 44 -14 114 -20 155 -5 41 -14 107 -19 145 -5 39 -14 102 -19 140 -6 39 -15
106 -21 150 -6 44 -15 107 -20 140 -29 214 -31 264 -28 857 2 337 7 619 11
626 6 9 114 12 482 12 260 0 480 -3 489 -6 15 -6 16 -216 16 -2280 0 -2237 0
-2273 -19 -2284 -13 -6 -206 -10 -557 -10 -486 0 -539 2 -556 17 -10 9 -18 20
-18 25 0 5 -34 89 -76 186 -42 97 -104 247 -139 332 -107 264 -185 454 -200
485 -7 17 -27 64 -43 105 -17 42 -51 125 -77 185 -65 150 -173 424 -182 460
-2 11 -8 29 -13 40 -4 11 -13 38 -19 60 -6 22 -19 69 -30 105 -29 99 -76 270
-117 425 -138 525 -152 576 -153 530 0 -11 4 -54 9 -95 6 -41 15 -113 21 -160
28 -227 54 -423 79 -595 6 -38 15 -106 21 -150 6 -44 14 -109 19 -145 5 -36
14 -103 20 -150 6 -47 16 -114 22 -150 16 -96 22 -1478 7 -1496 -9 -12 -92
-14 -481 -14 -304 0 -476 4 -489 10 -19 11 -19 47 -19 2278 0 1751 3 2271 12
2280 9 9 151 12 578 12 311 0 570 -4 575 -8z m3499 0 c3 -5 6 -386 6 -847 1
-472 5 -848 11 -861 l9 -24 322 2 323 3 3 854 c1 611 5 858 13 868 9 11 116
13 580 13 554 0 569 0 579 -20 7 -13 9 -718 8 -2280 -3 -1997 -5 -2262 -18
-2270 -20 -13 -1120 -13 -1140 0 -13 8 -16 124 -20 912 l-5 903 -325 0 -324 0
-7 -35 c-4 -19 -8 -424 -9 -899 0 -611 -4 -868 -11 -878 -9 -10 -120 -13 -574
-13 -504 0 -563 2 -569 16 -8 22 -8 4549 1 4557 10 10 1141 8 1147 -1z m416
-11057 c106 -148 197 -275 202 -281 6 -8 -89 -81 -297 -230 -168 -121 -304
-224 -303 -229 2 -6 99 -144 216 -307 l212 -297 291 210 c161 115 295 209 299
209 7 0 420 -572 420 -582 0 -4 -102 -80 -227 -169 -320 -229 -348 -250 -348
-260 0 -18 500 -708 511 -704 6 1 153 105 327 229 173 124 319 226 324 225 8
0 424 -576 430 -596 3 -8 -1253 -919 -1281 -928 -9 -3 -2248 3100 -2250 3120
-1 3 280 208 623 455 620 445 625 448 641 427 10 -12 104 -143 210 -292z
m-18300 -22 c298 -84 608 -329 730 -576 63 -128 84 -228 77 -367 -8 -149 -31
-233 -112 -395 -55 -111 -149 -248 -626 -925 -308 -437 -577 -817 -598 -845
-104 -137 -254 -281 -363 -346 -273 -165 -526 -180 -807 -48 -231 108 -432
292 -530 484 -59 115 -76 196 -76 355 1 166 28 278 109 447 71 146 74 151 551
828 684 972 738 1046 821 1131 253 258 523 342 824 257z m1520 -966 c184 -97
336 -182 338 -189 1 -7 -115 -402 -258 -877 -143 -475 -259 -865 -258 -867 2
-1 189 354 417 789 228 436 415 794 417 795 1 2 151 -74 332 -169 l330 -173
-20 -40 c-22 -44 -1234 -2359 -1562 -2986 -109 -206 -200 -378 -204 -381 -12
-10 -667 338 -665 353 4 17 520 1784 533 1823 6 16 7 25 2 20 -5 -6 -204 -383
-442 -840 -238 -456 -434 -831 -436 -833 -4 -6 -664 343 -664 352 0 8 1703
3270 1757 3364 14 24 30 41 36 39 7 -2 163 -84 347 -180z m15138 45 c158 -59
283 -153 414 -311 81 -98 204 -274 273 -391 21 -36 46 -79 57 -96 l18 -32
-317 -175 c-175 -97 -325 -178 -333 -181 -11 -5 -41 40 -115 175 -133 242
-194 309 -280 309 -61 0 -139 -52 -171 -112 -20 -38 -17 -129 4 -185 16 -43
722 -1332 921 -1683 143 -252 246 -316 374 -234 79 51 97 135 56 257 -22 67
-318 616 -333 617 -4 0 -44 -20 -88 -45 -44 -25 -83 -45 -87 -45 -12 1 -320
575 -312 583 16 16 806 447 814 444 8 -2 1075 -1930 1080 -1950 3 -11 -262
-159 -273 -152 -5 3 -64 51 -131 106 -130 106 -139 108 -139 38 0 -53 -35
-179 -66 -240 -121 -240 -424 -421 -703 -421 -243 0 -449 120 -669 389 -77 95
-168 238 -284 448 -459 830 -753 1366 -796 1451 -102 204 -152 390 -152 568 1
218 64 374 217 537 145 154 436 313 654 359 24 5 98 8 164 6 105 -3 130 -7
203 -34z m-13320 -917 c248 -94 313 -122 309 -134 -2 -9 -257 -682 -566 -1495
-309 -813 -560 -1480 -559 -1481 2 -1 167 -64 368 -140 201 -76 366 -139 368
-141 3 -2 -224 -603 -230 -610 -4 -3 -1275 475 -1430 537 -16 6 -28 16 -28 22
0 6 59 167 131 357 377 994 1175 3095 1201 3162 l29 77 47 -18 c26 -10 188
-71 360 -136z m11578 37 c189 -70 340 -223 458 -466 46 -95 717 -1777 768
-1926 91 -266 119 -505 83 -697 -38 -203 -186 -384 -404 -493 -97 -48 -1085
-433 -1089 -423 -1 4 -317 811 -702 1793 -494 1263 -695 1787 -687 1792 16 8
569 226 822 323 330 126 371 136 545 131 109 -3 135 -7 206 -34z m-10133 -528
l339 -98 -6 -28 c-11 -53 -1048 -3663 -1055 -3670 -6 -7 -698 186 -710 197 -3
3 30 126 72 273 278 972 978 3409 982 3420 3 7 13 11 22 8 10 -3 170 -49 356
-102z m8875 -1334 c193 -778 358 -1463 367 -1521 55 -385 -43 -688 -281 -867
-229 -171 -635 -265 -904 -208 -221 46 -421 217 -545 465 -72 144 -108 277
-447 1626 -191 765 -346 1372 -343 1350 3 -22 78 -647 167 -1390 144 -1203
161 -1367 162 -1510 0 -176 -17 -271 -75 -408 -153 -362 -545 -579 -975 -538
-147 14 -249 42 -359 96 -112 55 -187 115 -264 211 -76 93 -125 195 -157 321
-26 106 -148 1094 -136 1104 9 7 741 94 746 88 2 -2 29 -220 60 -484 63 -530
70 -564 138 -605 46 -28 131 -27 178 1 45 28 56 44 71 102 10 44 -7 202 -167
1547 -98 825 -176 1501 -174 1503 3 3 181 26 395 51 l390 47 350 88 c193 48
351 87 353 86 1 -1 155 -616 342 -1366 187 -750 349 -1395 361 -1434 41 -138
101 -225 165 -241 36 -9 103 4 140 27 54 33 68 76 61 198 -5 96 -38 237 -351
1496 -191 765 -348 1395 -351 1402 -4 13 715 196 726 184 4 -3 164 -643 357
-1421z m-8035 1110 c207 -38 379 -70 382 -70 3 0 6 -210 6 -467 1 -258 5 -673
8 -923 l6 -454 163 884 c90 487 165 887 167 889 4 3 727 -127 731 -132 3 -4
-696 -3781 -701 -3785 -6 -6 -728 128 -736 136 -5 6 -30 1543 -29 1831 0 57
-2 102 -4 100 -3 -2 -79 -409 -170 -904 -92 -495 -169 -912 -172 -928 -4 -17
-12 -27 -24 -27 -28 0 -712 128 -718 135 -3 3 150 853 341 1888 191 1035 347
1885 347 1890 0 12 9 10 403 -63z m2382 -321 c391 -23 711 -43 713 -44 6 -5
-40 -730 -47 -737 -3 -4 -172 3 -376 16 -203 12 -372 21 -374 20 -3 -3 -50
-737 -47 -741 1 -1 161 -12 356 -24 195 -11 358 -24 362 -28 8 -7 -34 -707
-43 -716 -4 -3 -165 4 -358 16 -193 12 -354 19 -358 16 -8 -8 -60 -868 -53
-872 3 -1 180 -13 393 -26 213 -13 392 -26 398 -29 6 -4 2 -134 -13 -376 l-23
-369 -45 3 c-329 19 -1545 94 -1546 95 -1 2 233 3830 235 3845 1 2 27 1 59 -2
31 -3 377 -24 767 -47z"/>
<path d="M20455 18787 c-3 -6 -4 -190 -3 -407 l3 -395 197 -5 c108 -3 200 -9
205 -13 4 -5 9 -202 11 -439 2 -392 1 -432 -14 -449 -16 -17 -35 -19 -211 -19
l-193 0 2 -407 3 -408 168 -3 c184 -3 244 7 321 52 110 64 183 212 211 429 22
160 21 1445 0 1592 -43 301 -123 418 -320 471 -68 19 -374 19 -380 1z"/>
<path d="M11049 7982 c-25 -16 -61 -47 -80 -70 -30 -35 -272 -376 -1008 -1422
-222 -315 -263 -409 -217 -498 19 -37 76 -77 124 -87 47 -10 110 25 179 99 71
75 1174 1638 1222 1730 22 42 36 84 39 119 4 47 1 57 -23 85 -63 75 -159 93
-236 44z"/>
<path d="M25667 6207 c-48 -17 -86 -36 -83 -42 2 -5 205 -525 451 -1155 246
-630 451 -1149 455 -1153 12 -14 193 70 222 102 40 44 50 94 34 161 -14 58
-741 1922 -778 1993 -69 135 -132 155 -301 94z"/>
<path d="M38386 29642 c-5 -9 80 -202 194 -437 57 -118 126 -272 246 -552 89
-207 303 -752 349 -888 26 -77 51 -149 56 -160 4 -11 15 -40 23 -65 8 -25 37
-103 64 -175 46 -121 83 -233 145 -430 170 -542 178 -570 278 -945 15 -58 37
-139 48 -180 11 -41 28 -104 36 -140 22 -92 54 -227 66 -277 5 -24 13 -62 19
-85 9 -38 20 -91 51 -245 5 -24 13 -62 18 -85 5 -24 18 -83 29 -133 40 -174
98 -476 132 -690 11 -71 25 -157 30 -190 6 -33 21 -141 35 -240 14 -99 30
-214 35 -255 10 -72 19 -134 39 -292 51 -387 88 -805 123 -1388 18 -293 18
-1763 0 -2060 -24 -411 -57 -831 -82 -1055 -26 -226 -49 -412 -60 -490 -5 -33
-14 -98 -20 -145 -6 -47 -15 -112 -20 -145 -5 -33 -19 -127 -31 -210 -20 -144
-27 -195 -49 -325 -5 -33 -14 -86 -20 -117 -5 -32 -13 -80 -18 -108 -6 -27
-17 -90 -26 -140 -14 -78 -57 -283 -86 -412 -27 -120 -26 -115 -71 -328 -35
-172 -119 -519 -159 -660 -5 -16 -18 -64 -28 -105 -11 -41 -32 -120 -47 -175
-86 -327 -365 -1195 -429 -1339 -8 -17 -33 -87 -56 -156 -58 -174 -132 -372
-189 -505 -5 -11 -35 -85 -66 -165 -32 -80 -77 -190 -100 -245 -127 -297 -218
-501 -262 -590 -28 -55 -65 -134 -83 -175 -108 -252 -549 -1099 -747 -1435
-16 -27 -32 -57 -36 -65 -4 -8 -30 -54 -59 -102 -29 -48 -93 -153 -142 -235
-133 -222 -411 -658 -533 -835 -59 -86 -146 -212 -192 -280 -47 -68 -116 -166
-155 -218 -39 -52 -107 -145 -151 -207 -93 -129 -191 -259 -324 -428 -144
-183 -317 -398 -339 -421 -10 -11 -36 -42 -57 -70 -69 -90 -562 -658 -594
-684 -4 -3 -51 -54 -106 -115 -422 -466 -1141 -1161 -1675 -1619 -50 -44 -97
-84 -103 -91 -7 -6 -50 -42 -97 -80 -47 -37 -148 -121 -225 -184 -77 -64 -169
-139 -205 -166 -36 -28 -111 -86 -166 -130 -518 -408 -1382 -1005 -1869 -1289
-55 -32 -122 -73 -150 -91 -107 -68 -292 -177 -480 -280 -27 -15 -79 -45 -115
-65 -36 -20 -114 -63 -175 -95 -60 -32 -114 -61 -120 -65 -25 -19 -697 -355
-821 -410 -77 -34 -183 -84 -236 -111 -87 -43 -199 -93 -576 -255 -282 -121
-703 -285 -902 -351 -74 -24 -148 -50 -165 -58 -50 -22 -252 -95 -390 -140
-117 -39 -188 -61 -490 -155 -164 -51 -289 -89 -370 -111 -44 -12 -136 -37
-205 -55 -159 -43 -419 -112 -445 -118 -11 -3 -60 -14 -110 -26 -145 -34 -169
-39 -420 -92 -84 -17 -133 -28 -177 -38 -211 -47 -539 -112 -713 -140 -38 -6
-95 -15 -125 -20 -136 -24 -401 -63 -545 -81 -38 -4 -101 -13 -140 -18 -511
-71 -946 -112 -1620 -153 -287 -18 -1771 -18 -2060 0 -482 29 -807 54 -1055
83 -47 5 -125 14 -175 20 -49 5 -121 14 -160 19 -38 5 -108 14 -155 20 -47 6
-114 15 -150 20 -36 5 -99 14 -140 20 -41 5 -138 19 -215 31 -77 11 -167 25
-200 29 -69 10 -156 25 -235 39 -30 5 -95 17 -145 26 -160 28 -486 95 -605
125 -19 5 -72 16 -116 24 -45 9 -144 30 -220 47 -77 17 -157 35 -179 40 -22 4
-110 27 -195 49 -85 23 -171 45 -190 50 -19 4 -60 15 -90 23 -30 9 -99 27
-152 41 -204 55 -582 170 -963 293 -60 19 -186 64 -280 98 -93 35 -217 79
-276 98 -58 20 -125 43 -150 52 -24 9 -69 26 -99 37 -30 11 -68 26 -85 33 -16
8 -156 63 -309 124 -247 99 -344 139 -451 187 -16 7 -112 49 -212 93 -101 45
-222 100 -270 125 -49 24 -122 58 -163 76 -41 18 -151 71 -245 118 -93 47
-233 117 -310 155 -183 91 -365 189 -660 355 -313 176 -366 207 -452 264 -40
26 -74 48 -77 48 -28 0 -918 569 -1068 683 -24 18 -95 68 -158 112 -457 313
-1225 915 -1634 1281 -50 45 -130 114 -177 155 -385 330 -1172 1113 -1614
1607 -330 370 -778 910 -988 1192 -38 52 -89 118 -112 145 -44 53 -207 275
-315 429 -36 51 -111 158 -167 239 -57 80 -103 149 -103 152 0 4 -36 57 -79
119 -77 108 -207 308 -346 531 -37 61 -97 157 -133 215 -71 114 -162 269 -162
276 0 2 -33 59 -74 127 -84 140 -112 189 -174 307 -24 47 -79 148 -122 225
-43 77 -99 182 -125 233 l-46 92 -285 0 c-242 0 -284 -2 -284 -15 0 -17 76
-176 136 -285 22 -41 67 -124 99 -185 81 -154 118 -223 195 -360 37 -66 82
-147 100 -180 18 -33 53 -93 77 -134 45 -74 63 -105 111 -191 14 -25 40 -69
59 -98 18 -29 33 -54 33 -57 0 -2 29 -50 65 -105 37 -56 93 -147 127 -203 34
-56 96 -154 138 -217 42 -63 120 -180 173 -260 123 -187 443 -649 498 -719 24
-30 104 -136 179 -235 204 -273 460 -596 665 -842 84 -101 289 -338 305 -354
3 -3 54 -61 115 -130 218 -250 443 -487 855 -901 348 -349 846 -814 1075
-1004 33 -27 94 -79 135 -116 140 -122 672 -551 873 -704 257 -195 655 -480
942 -675 110 -74 214 -145 230 -157 17 -11 91 -58 165 -104 74 -46 149 -93
165 -105 31 -23 338 -211 480 -294 44 -25 161 -94 260 -152 99 -58 215 -124
258 -147 43 -23 119 -65 170 -93 51 -28 115 -63 142 -78 184 -102 930 -468
1180 -580 72 -32 177 -80 235 -108 58 -27 191 -84 295 -125 105 -42 273 -111
375 -152 102 -42 203 -82 225 -90 22 -7 114 -41 205 -75 297 -111 918 -324
1095 -376 229 -66 429 -125 525 -154 121 -36 288 -81 410 -110 47 -12 150 -37
230 -56 80 -19 161 -39 180 -44 19 -5 55 -13 80 -19 25 -5 83 -19 130 -30 96
-23 129 -30 507 -106 349 -70 729 -137 958 -169 355 -50 366 -52 555 -76 301
-37 784 -84 1135 -109 154 -11 314 -23 355 -26 387 -33 1902 -33 2110 -1 19 3
125 10 235 16 318 18 898 73 1363 130 207 25 239 29 267 34 17 3 84 13 150 21
238 32 594 95 1080 192 127 25 241 47 255 50 30 5 102 21 150 33 19 5 74 18
123 30 48 11 124 29 170 40 45 11 159 38 252 60 94 22 179 43 190 46 114 29
247 65 275 74 36 12 68 21 130 39 19 5 98 28 175 51 157 47 185 55 235 68 51
14 353 110 387 123 15 6 114 40 218 76 252 85 508 177 670 240 22 8 108 42
192 73 84 32 167 66 185 74 18 9 148 62 288 120 237 96 449 190 795 353 159
75 869 429 930 463 22 13 144 80 270 150 127 69 280 155 340 191 61 37 187
111 280 167 94 55 247 149 340 208 94 59 199 125 235 147 139 86 575 382 765
520 44 32 114 81 155 109 350 241 1138 870 1574 1258 78 69 160 141 183 160
266 223 1308 1265 1515 1517 21 25 89 102 152 171 62 70 149 169 192 221 44
52 112 133 152 180 482 566 1125 1437 1539 2086 195 305 407 653 521 855 14
25 40 67 57 95 18 27 54 91 80 140 26 50 63 116 81 148 19 32 34 60 34 62 0 2
16 32 36 67 20 34 49 86 64 113 35 64 392 778 455 909 25 55 84 184 130 287
46 103 97 214 113 246 17 32 71 162 122 288 51 127 102 253 115 280 54 122
238 615 352 945 143 415 218 646 263 810 6 19 19 65 30 103 11 37 29 97 40
135 11 37 25 85 32 107 6 22 17 58 24 81 33 104 101 375 184 732 12 48 25 103
30 122 5 19 14 58 20 85 6 28 15 66 20 85 13 50 28 121 33 150 3 14 21 104 40
200 75 369 171 905 197 1103 6 45 16 111 21 147 13 90 27 200 39 295 5 44 14
118 20 165 20 161 59 566 79 805 34 416 41 508 41 572 0 34 4 84 10 110 32
160 32 1653 0 1973 -5 52 -14 176 -20 275 -20 338 -86 1055 -120 1305 -6 41
-15 111 -20 155 -29 226 -80 574 -111 750 -45 259 -140 747 -179 925 -4 19
-11 51 -15 70 -3 19 -15 73 -26 120 -11 47 -25 105 -30 130 -6 25 -14 61 -19
80 -5 19 -21 82 -34 140 -14 58 -44 179 -67 270 -22 91 -44 181 -49 200 -12
48 -25 93 -50 175 -12 39 -26 84 -30 100 -5 17 -18 62 -29 100 -21 73 -61 209
-106 360 -15 50 -32 106 -37 125 -68 237 -467 1334 -558 1535 -10 22 -53 128
-95 235 -43 107 -108 260 -146 338 -38 79 -69 146 -69 148 0 4 -28 67 -131
291 -16 34 -37 67 -48 72 -24 13 -547 15 -555 3z"/>
<path d="M11167 26403 c-4 -3 -7 -408 -7 -898 0 -837 -1 -893 -17 -907 -10 -8
-99 -57 -198 -108 -99 -51 -238 -123 -310 -160 -71 -37 -305 -156 -520 -265
-214 -109 -403 -206 -420 -215 -16 -10 -136 -72 -265 -138 -129 -66 -264 -135
-300 -154 -36 -19 -234 -121 -440 -226 -206 -104 -406 -206 -443 -226 -38 -20
-157 -82 -265 -136 -109 -55 -256 -131 -329 -169 -158 -83 -535 -276 -948
-486 -165 -84 -417 -213 -560 -287 -143 -74 -363 -188 -490 -253 -126 -65
-236 -125 -242 -133 -16 -20 -19 -908 -3 -932 8 -13 387 -15 3287 -18 1803 -2
3397 -1 3542 3 l264 7 -7 167 c-8 195 -23 619 -37 1026 -5 160 -14 398 -19
530 -17 451 -30 770 -40 1015 -14 336 -27 684 -39 1005 -6 149 -15 387 -21
530 -13 311 -26 671 -40 1085 -6 168 -13 315 -15 328 l-5 22 -554 0 c-304 0
-556 -3 -559 -7z"/>
<path d="M11080 19868 c-196 -26 -271 -42 -385 -80 -304 -102 -545 -290 -729
-568 -203 -305 -306 -652 -367 -1230 -17 -158 -13 -792 5 -983 37 -377 99
-678 184 -892 90 -227 205 -406 350 -547 194 -188 400 -293 667 -338 39 -6 94
-16 124 -21 80 -13 345 -11 431 5 95 17 201 46 219 60 19 15 47 60 157 258
110 197 179 308 193 308 7 0 103 -208 166 -360 71 -175 89 -216 98 -228 7 -9
51 -12 176 -10 l166 3 3 1288 2 1287 -685 0 -685 0 -2 -372 c-2 -205 1 -381 5
-390 7 -16 27 -18 201 -18 168 0 195 -2 200 -16 3 -9 6 -199 6 -424 l0 -409
-26 -20 c-47 -37 -200 -72 -323 -74 -251 -3 -413 166 -460 478 -28 184 -31
286 -31 941 0 737 4 806 51 961 65 212 213 340 439 379 150 25 368 -1 635 -76
22 -6 58 -15 80 -20 22 -4 92 -21 155 -38 63 -16 119 -26 124 -21 8 7 43 236
86 559 13 104 26 188 41 279 7 38 9 76 6 84 -6 15 -148 92 -237 127 -58 23
-180 59 -265 78 -48 11 -100 18 -280 42 -94 12 -402 11 -495 -2z"/>
<path d="M15853 19798 c-6 -7 -18 -42 -26 -78 -60 -252 -412 -1677 -435 -1762
-10 -37 -21 -71 -25 -74 -4 -4 -7 -17 -7 -28 0 -12 -9 -61 -21 -111 -12 -49
-34 -146 -50 -215 -36 -156 -60 -255 -94 -390 -15 -58 -31 -123 -36 -145 -6
-22 -14 -58 -20 -80 -5 -22 -14 -58 -20 -80 -5 -22 -14 -56 -18 -75 -18 -76
-132 -546 -137 -567 -11 -40 14 -26 118 65 55 48 120 103 143 122 51 42 316
272 365 316 19 18 56 49 82 71 25 21 106 90 180 154 146 127 196 164 205 155
10 -10 5 -66 -12 -141 -28 -119 -55 -277 -49 -286 3 -5 131 -9 285 -9 l279 0
0 39 c0 21 -4 51 -9 67 -10 33 -19 76 -61 294 -16 85 -34 177 -40 203 -5 27
-10 59 -10 71 0 12 -6 31 -14 41 -13 18 -17 17 -71 -30 -253 -222 -295 -252
-295 -208 0 9 22 127 49 262 53 265 64 335 81 536 6 72 15 175 20 230 5 55 14
152 19 215 6 63 16 180 23 258 11 131 26 188 43 171 6 -7 18 -113 35 -324 6
-71 15 -182 20 -245 6 -63 14 -164 20 -225 5 -60 12 -148 16 -195 7 -92 50
-330 63 -343 9 -9 32 8 171 128 58 50 124 106 146 125 84 71 391 335 439 379
28 26 69 62 92 82 42 35 42 36 32 75 -6 21 -15 55 -20 74 -14 57 -108 451
-119 500 -5 25 -18 83 -29 130 -11 47 -29 130 -41 185 -34 160 -38 178 -100
424 -32 128 -62 236 -65 240 -4 3 -251 7 -549 9 -431 2 -545 0 -553 -10z"/>
<path d="M14802 15981 l-79 -69 -6 -99 c-10 -150 -8 -431 3 -438 5 -3 12 7 15
22 15 68 88 367 119 488 28 107 39 165 32 165 -3 0 -41 -31 -84 -69z"/>
<path d="M8456 14264 c-8 -20 -8 -238 0 -258 6 -15 191 -16 1998 -16 l1991 0
148 126 c95 82 147 133 145 143 -3 15 -184 16 -2140 19 -1941 2 -2136 1 -2142
-14z"/>
<path d="M12409 13871 c-53 -6 -62 -12 -180 -110 -159 -134 -189 -162 -183
-173 3 -4 160 -8 348 -8 295 0 345 2 356 15 17 20 9 250 -9 268 -14 14 -239
19 -332 8z"/>
<path d="M8824 13373 l-1732 -3 -6 -31 c-9 -49 -7 -205 4 -233 l10 -26 2143 0
2144 0 29 22 c67 51 304 261 300 265 -7 7 -1014 9 -2892 6z"/>
<path d="M11185 12859 c-50 -45 -121 -107 -159 -138 -38 -31 -70 -60 -70 -65
-1 -8 1944 -9 1953 -1 2 2 -12 42 -32 87 -19 46 -41 103 -48 128 -7 25 -17 51
-22 58 -7 9 -173 12 -771 12 l-761 0 -90 -81z"/>
<path d="M5734 12447 c-2 -7 -3 -71 -2 -143 l3 -129 2302 -3 2302 -2 49 42
c27 24 89 77 138 119 129 111 134 116 134 123 0 3 -1107 6 -2460 6 -2013 0
-2462 -2 -2466 -13z"/>
</g>
</svg>
